<svg viewBox="0 0 1024 1045.491" xmlns="http://www.w3.org/2000/svg" fill="#000080"><path d="M334.196 336.492h.006c132.486 0 246.942 77.2 300.834 189.07l.868 2c20.557 41.715 32.582 90.81 32.582 142.713v.436-.022c-.013 184.587-149.654 334.22-334.243 334.22C149.646 1004.908 0 855.262 0 670.665v-.025-.463C0 618.26 12.025 569.15 33.44 525.482l-.858 1.94C87.39 413.68 201.778 336.584 334.174 336.584h.025-.003zm0 621.8c158.79-.184 287.466-128.86 287.65-287.632v-.018l.002-.583c0-44.527-10.307-86.646-28.665-124.1l.737 1.663c-47.1-98.05-145.624-164.534-259.677-164.534S121.666 449.573 75.313 545.9l-.748 1.72c-17.68 35.853-28.02 78.05-28.02 122.66v.282-.015c.132 158.83 128.828 287.558 287.633 287.743h.018zm.233-444.043c61.97.175 115.484 36.207 140.902 88.434l.41.932c9.58 19.335 15.224 42.092 15.312 66.158v.03c.148 2.552.233 5.537.233 8.54 0 86.63-70.228 156.86-156.858 156.86s-156.86-70.23-156.86-156.86c0-3.004.085-5.99.252-8.95l-.018.41c.088-24.095 5.73-46.852 15.713-67.084l-.4.896c25.827-53.16 79.34-89.192 141.29-89.367h.022zm0 274.618h.005c60.924 0 110.313-49.39 110.313-110.313 0-2.292-.07-4.57-.208-6.826l.015.31v-1.444-.17c0-16.874-3.935-32.83-10.937-46.997l.278.62v-.233c-18.034-37.453-55.693-62.84-99.28-62.84s-81.248 25.387-98.997 62.183l-.287.657v.233c-6.724 13.547-10.66 29.502-10.66 46.376v.18-.01 1.443c-.122 1.947-.192 4.223-.192 6.516 0 60.795 49.18 110.104 109.928 110.312h.02zm.697-720.99h.465L1024 69.786V382.99H334.194c-113.406.786-211.162 66.99-257.484 162.727l-.75 1.718c-17.467 35.497-27.754 77.245-27.926 121.38v1.826H1.49V404.635c-.04-1.65-.06-3.595-.06-5.544 0-15.89 1.443-31.44 4.208-46.53l-.24 1.573C29.23 191.48 167.74 67.985 335.117 67.878h.01zm642.328 48.36l-642.327-1.814C191.106 115 72.058 221.192 51.395 359.534l-.194 1.58v.932c-2.16 11.307-3.394 24.312-3.394 37.605 0 1.508.016 3.01.047 4.51l-.004-.223v97c58.796-98.788 164.854-164.05 286.19-164.49h643.415zm-131.26 154.58h-46.544V93.012h46.546zm-177.802-44.22h-46.545V93.013h46.545zm-177.338 44.22H444.51V93.012h46.545zm-177.804-44.22h-46.544V93.013h46.545z"/></svg>